<svg xmlns="http://www.w3.org/2000/svg" xmlns:xlink="http://www.w3.org/1999/xlink" width="646.646" height="263.693" viewBox="0 0 646.646 263.693">
  <defs>
    <linearGradient id="linear-gradient" x1="0.5" x2="0.5" y2="1" gradientUnits="objectBoundingBox">
      <stop offset="0" stop-color="#777"/>
      <stop offset="1" stop-color="#111"/>
    </linearGradient>
  </defs>
  <g id="Group_4983" data-name="Group 4983" transform="translate(0 -20.635)">
    <path id="Path_39805" data-name="Path 39805" d="M72.656-75.8H45.168V0h-15.2V-75.8H2.725V-88.156H72.656ZM62.489-33.361A38.629,38.629,0,0,1,66.3-50.708,27.859,27.859,0,0,1,77.02-62.575a30.2,30.2,0,0,1,15.863-4.147q13.26,0,21.524,8.537t8.931,22.645l.061,3.451a38.975,38.975,0,0,1-3.724,17.316A27.524,27.524,0,0,1,109.019-2.967,30.417,30.417,0,0,1,93,1.211q-13.865,0-22.19-9.233T62.489-32.635ZM77.2-32.09q0,10.111,4.178,15.833A13.581,13.581,0,0,0,93-10.535,13.433,13.433,0,0,0,104.6-16.348q4.147-5.812,4.147-17.014,0-9.93-4.269-15.742a13.63,13.63,0,0,0-11.595-5.812A13.505,13.505,0,0,0,81.44-49.194Q77.2-43.473,77.2-32.09Zm67.515-33.422.424,6.842q6.9-8.053,18.891-8.053,13.139,0,17.982,10.051,7.145-10.051,20.1-10.051,10.838,0,16.136,5.994t5.419,17.68V0H208.957V-42.625q0-6.236-2.725-9.143t-9.021-2.906a12.25,12.25,0,0,0-8.2,2.694,14.209,14.209,0,0,0-4.45,7.054L184.617,0H169.9V-43.109q-.3-11.564-11.807-11.564-8.84,0-12.533,7.205V0H130.851V-65.512Zm86.345,32.15a38.629,38.629,0,0,1,3.814-17.347,27.859,27.859,0,0,1,10.717-11.867,30.2,30.2,0,0,1,15.863-4.147q13.26,0,21.524,8.537t8.931,22.645l.061,3.451a38.975,38.975,0,0,1-3.724,17.316A27.524,27.524,0,0,1,277.592-2.967a30.417,30.417,0,0,1-16.015,4.178q-13.865,0-22.19-9.233t-8.325-24.612Zm14.713,1.271q0,10.111,4.178,15.833a13.581,13.581,0,0,0,11.625,5.722,13.434,13.434,0,0,0,11.595-5.812q4.147-5.812,4.147-17.014,0-9.93-4.269-15.742a13.63,13.63,0,0,0-11.595-5.812,13.505,13.505,0,0,0-11.443,5.722Q245.774-43.473,245.774-32.09Zm90.4,14.289a6.67,6.67,0,0,0-3.239-5.994q-3.239-2.059-10.747-3.633a55.246,55.246,0,0,1-12.533-4q-11.02-5.328-11.02-15.439,0-8.477,7.145-14.168t18.164-5.691q11.746,0,18.981,5.813a18.444,18.444,0,0,1,7.235,15.076H335.449a9.067,9.067,0,0,0-3.148-7.054,12.066,12.066,0,0,0-8.355-2.815,13.038,13.038,0,0,0-7.9,2.24,7.062,7.062,0,0,0-3.058,5.994,5.963,5.963,0,0,0,2.846,5.268q2.846,1.877,11.5,3.784a54.456,54.456,0,0,1,13.593,4.541,19.248,19.248,0,0,1,7.326,6.327,16.135,16.135,0,0,1,2.392,8.961A17.069,17.069,0,0,1,343.32-4.269q-7.326,5.479-19.193,5.479A33.875,33.875,0,0,1,309.777-1.7a23.617,23.617,0,0,1-9.809-7.992,18.918,18.918,0,0,1-3.512-10.959h14.289a10.367,10.367,0,0,0,3.936,8.022q3.633,2.815,9.627,2.815,5.813,0,8.84-2.21A6.84,6.84,0,0,0,336.176-17.8Z" transform="translate(295.999 130)"/>
    <g id="Group_4958" data-name="Group 4958" transform="translate(0 20.635)">
      <g id="Group_4782" data-name="Group 4782" transform="translate(0 0)">
        <g id="Path_39647" data-name="Path 39647" fill="url(#linear-gradient)">
          <path d="M 197.1043090820312 263.1937255859375 L 66.58930206298828 263.1937255859375 C 57.66706848144531 263.1937255859375 49.01200103759766 261.4463806152344 40.864501953125 258.0002746582031 C 36.94857025146484 256.343994140625 33.17156982421875 254.2939147949219 29.63850212097168 251.906982421875 C 26.13883590698242 249.5426788330078 22.84790229797363 246.8274078369141 19.85710144042969 243.8366088867188 C 16.86630249023438 240.8457794189453 14.15103530883789 237.5548400878906 11.78670215606689 234.0552215576172 C 9.399802207946777 230.5221099853516 7.349735260009766 226.7451477050781 5.693435192108154 222.8291778564453 C 2.247335195541382 214.6816864013672 0.5000017285346985 206.026611328125 0.5000017285346985 197.1044158935547 L 0.5000017285346985 66.58934783935547 C 0.5000017285346985 57.6671142578125 2.247335195541382 49.01204681396484 5.693435192108154 40.86454772949219 C 7.349735260009766 36.94858169555664 9.399802207946777 33.17161560058594 11.78670215606689 29.63851356506348 C 14.15103530883789 26.13884735107422 16.86630249023438 22.84791374206543 19.85710144042969 19.85711479187012 C 22.84790229797363 16.86631393432617 26.13883590698242 14.151047706604 29.63850212097168 11.78674793243408 C 33.17156982421875 9.399814605712891 36.94857025146484 7.349747657775879 40.864501953125 5.693447589874268 C 49.01200103759766 2.247347593307495 57.66706848144531 0.5000141859054565 66.58930206298828 0.5000141859054565 L 197.1043090820312 0.5000141859054565 C 206.0265350341797 0.5000141859054565 214.6815948486328 2.247347593307495 222.8291015625 5.693447589874268 C 226.7450408935547 7.349747657775879 230.5220336914062 9.399814605712891 234.0550994873047 11.78674793243408 C 237.5547637939453 14.151047706604 240.845703125 16.86631393432617 243.8365020751953 19.85711479187012 C 246.8273010253906 22.84791374206543 249.5425720214844 26.13884735107422 251.9069061279297 29.63851356506348 C 254.2938079833984 33.17161560058594 256.3438720703125 36.94858169555664 258.0001831054688 40.86454772949219 C 261.4462585449219 49.01204681396484 263.193603515625 57.6671142578125 263.193603515625 66.58934783935547 L 263.193603515625 197.1044158935547 C 263.193603515625 206.026611328125 261.4462585449219 214.6816864013672 258.0001831054688 222.8291778564453 C 256.3438720703125 226.7451477050781 254.2938079833984 230.5221099853516 251.9069061279297 234.0552215576172 C 249.5425720214844 237.5548400878906 246.8273010253906 240.8457794189453 243.8365020751953 243.8366088867188 C 240.845703125 246.8274078369141 237.5547637939453 249.5426788330078 234.0550994873047 251.906982421875 C 230.5220336914062 254.2939147949219 226.7450408935547 256.343994140625 222.8291015625 258.0002746582031 C 214.6815948486328 261.4463806152344 206.0265350341797 263.1937255859375 197.1043090820312 263.1937255859375 Z" stroke="none"/>
          <path d="M 66.58929443359375 0.999969482421875 C 57.734375 0.999969482421875 49.14483642578125 2.7340087890625 41.05929565429688 6.153900146484375 C 37.17306518554688 7.797653198242188 33.42472839355469 9.832183837890625 29.91839599609375 12.20101928710938 C 26.44509887695312 14.54751586914062 23.17897033691406 17.24234008789062 20.21066284179688 20.21064758300781 C 17.24237060546875 23.178955078125 14.54753112792969 26.44511413574219 12.20103454589844 29.91838073730469 C 9.832199096679688 33.42474365234375 7.79766845703125 37.17308044433594 6.1539306640625 41.05928039550781 C 2.734039306640625 49.14485168457031 1 57.734375 1 66.58930969238281 L 1 197.1044158935547 C 1 205.9593505859375 2.734039306640625 214.5488891601562 6.1539306640625 222.6344146728516 C 7.79766845703125 226.5206146240234 9.832199096679688 230.2689514160156 12.20103454589844 233.7753143310547 C 14.54753112792969 237.2485809326172 17.24237060546875 240.5147094726562 20.21066284179688 243.4830169677734 C 23.17897033691406 246.4513092041016 26.44509887695312 249.1461486816406 29.91839599609375 251.4926452636719 C 33.42472839355469 253.8614807128906 37.17306518554688 255.8960113525391 41.05929565429688 257.5397338867188 C 49.14483642578125 260.9596557617188 57.734375 262.6936950683594 66.58929443359375 262.6936950683594 L 197.1043090820312 262.6936950683594 C 205.959228515625 262.6936950683594 214.5487670898438 260.9596557617188 222.6343078613281 257.5397338867188 C 226.5205383300781 255.8960113525391 230.2688598632812 253.8614807128906 233.7752075195312 251.4926452636719 C 237.2485046386719 249.1461486816406 240.5146331787109 246.4513092041016 243.4829406738281 243.4830169677734 C 246.4512329101562 240.5147094726562 249.1460723876953 237.2485809326172 251.4925689697266 233.7753143310547 C 253.8614044189453 230.2689514160156 255.8959350585938 226.5206146240234 257.5396728515625 222.6344146728516 C 260.9595642089844 214.5488891601562 262.693603515625 205.9593505859375 262.693603515625 197.1044158935547 L 262.693603515625 66.58930969238281 C 262.693603515625 57.734375 260.9595642089844 49.14485168457031 257.5396728515625 41.05928039550781 C 255.8959350585938 37.17308044433594 253.8614044189453 33.42474365234375 251.4925689697266 29.91838073730469 C 249.1460723876953 26.44511413574219 246.4512329101562 23.178955078125 243.4829406738281 20.21064758300781 C 240.5146331787109 17.24234008789062 237.2485046386719 14.54751586914062 233.7752075195312 12.20101928710938 C 230.2688598632812 9.832183837890625 226.5205383300781 7.797653198242188 222.6343078613281 6.153900146484375 C 214.5487670898438 2.7340087890625 205.959228515625 0.999969482421875 197.1043090820312 0.999969482421875 L 66.58929443359375 0.999969482421875 M 66.58929443359375 -3.0517578125e-05 L 197.1043090820312 -3.0517578125e-05 C 233.8805694580078 -3.0517578125e-05 263.693603515625 29.81304931640625 263.693603515625 66.58930969238281 L 263.693603515625 197.1044158935547 C 263.693603515625 233.8806457519531 233.8805694580078 263.6936950683594 197.1043090820312 263.6936950683594 L 66.58929443359375 263.6936950683594 C 29.81303405761719 263.6936950683594 0 233.8806457519531 0 197.1044158935547 L 0 66.58930969238281 C 0 29.81304931640625 29.81303405761719 -3.0517578125e-05 66.58929443359375 -3.0517578125e-05 Z" stroke="none" fill="#707070"/>
        </g>
        <path id="Path_39652" data-name="Path 39652" d="M61.749-19.907H43.584V39.8q0,5.158-2.3,7.653a7.712,7.712,0,0,1-5.943,2.495,7.823,7.823,0,0,1-6.027-2.523Q26.988,44.9,26.988,39.8v-59.71H8.823q-4.261,0-6.335-1.878A6.372,6.372,0,0,1,.413-26.747a6.3,6.3,0,0,1,2.159-5.046q2.159-1.85,6.251-1.85H61.749q4.317,0,6.42,1.906a6.418,6.418,0,0,1,2.1,4.99,6.293,6.293,0,0,1-2.13,4.962Q66.01-19.907,61.749-19.907Z" transform="translate(96.806 123.693)" fill="#fff"/>
        <path id="Path_39806" data-name="Path 39806" d="M18.205-3.225V-7.947H5.459A5.24,5.24,0,0,1,1.841-9.039,3.807,3.807,0,0,1,.635-12.01a2.88,2.88,0,0,1,.178-.978,5.067,5.067,0,0,1,.533-1.041q.355-.546.736-1.054t.939-1.244l13.457-18a20.512,20.512,0,0,1,2.171-2.577,2.878,2.878,0,0,1,2.044-.8q3.859,0,3.859,4.418v19.652h1.092a7.715,7.715,0,0,1,3.136.533,2.287,2.287,0,0,1,1.181,2.336A2.432,2.432,0,0,1,29-8.62a5.077,5.077,0,0,1-2.895.673H24.553v4.723a4.217,4.217,0,0,1-.863,2.907,2.966,2.966,0,0,1-2.311.952,2.938,2.938,0,0,1-2.3-.978A4.192,4.192,0,0,1,18.205-3.225ZM7.287-13.635H18.205V-28.387Z" transform="translate(198.367 220.711)" fill="#fff"/>
      </g>
      <path id="Path_39804" data-name="Path 39804" d="M9.25,0V-91H40.438q15.438,0,23.5,6.188T72-66.375a19.651,19.651,0,0,1-3.375,11.25,21.724,21.724,0,0,1-9.875,7.75,20.085,20.085,0,0,1,11.406,7.531,21.935,21.935,0,0,1,4.031,13.281q0,12.813-8.219,19.688T42.438,0ZM25.063-41.062v28.438H42.625q7.437,0,11.625-3.687t4.188-10.25q0-14.188-14.5-14.5Zm0-11.625h15.5q7.375,0,11.531-3.344T56.25-65.5q0-6.75-3.844-9.75t-11.969-3H25.063Zm55.5,18.25A39.875,39.875,0,0,1,84.5-52.344a28.757,28.757,0,0,1,11.063-12.25,31.169,31.169,0,0,1,16.375-4.281q13.688,0,22.219,8.813t9.219,23.375l.063,3.563A40.232,40.232,0,0,1,139.6-15.25a28.412,28.412,0,0,1-11,12.188A31.4,31.4,0,0,1,112.067,1.25q-14.312,0-22.906-9.531T80.567-33.687Zm15.188,1.313q0,10.438,4.313,16.344a14.019,14.019,0,0,0,12,5.906,13.867,13.867,0,0,0,11.969-6q4.281-6,4.281-17.562,0-10.25-4.406-16.25a14.07,14.07,0,0,0-11.969-6,13.941,13.941,0,0,0-11.812,5.906Q95.755-44.875,95.755-33.125ZM170.2-84.062v16.438h11.938v11.25H170.2v37.75q0,3.875,1.531,5.594t5.469,1.719a23.4,23.4,0,0,0,5.313-.625V-.187a37.4,37.4,0,0,1-10,1.438q-17.5,0-17.5-19.312V-56.375H143.885v-11.25H155.01V-84.062Z" transform="translate(296 238.339)"/>
    </g>
  </g>
</svg>
